<?xml version="1.0" standalone="no"?>
<!DOCTYPE svg PUBLIC "-//W3C//DTD SVG 20010904//EN"
 "http://www.w3.org/TR/2001/REC-SVG-20010904/DTD/svg10.dtd">
<svg version="1.0" xmlns="http://www.w3.org/2000/svg" width="1255.000000pt" height="90.000000pt" viewBox="0 0 1255.000000 90.000000">
  <filter id="glow">
    <feFlood flood-color="rgb(255,255,255)" flood-opacity="0.5" in="SourceGraphic" />
    <feComposite operator="in" in2="SourceGraphic" />
    <feGaussianBlur stdDeviation="10" />
    <feComponentTransfer result="glow1">
      <feFuncA type="linear" slope="4" intercept="0" />
    </feComponentTransfer>
    <feMerge>
      <feMergeNode in="glow1" />
      <feMergeNode in="SourceGraphic" />
    </feMerge>
  </filter>
  <g transform="translate(0.000000,90.000000) scale(0.100000,-0.100000)" fill="#000000" stroke="none">
    <path fill="#d71e23" d="M5765 885 c-86 -33 -144 -119 -145 -216 0 -155 76 -280 328 -541 l126 -130 98 104 c287 303 354 414 346 576 -3 65 -8 84 -32 120 -43 63 -106 97 -181 97 -75 -1 -124 -25 -189 -95 -44 -47 -50 -50 -59 -34 -17 31 -82 89 -120 108 -52 24 -124 29 -172 11z"/>
    <path fill="#d71e23" d="M1535 690 c-234 -36 -245 -39 -411 -104 l-172 -67 -169 66 -169 65 -172 -2 -173 -3 246 -94 c135 -52 242 -97 238 -101 -4 -4 -169 -63 -365 -130 -197 -68 -357 -125 -355 -126 1 -1 133 10 292 26 l290 28 169 66 169 67 167 -66 167 -65 176 2 176 3 -249 95 c-137 52 -250 97 -250 100 0 3 150 63 333 134 182 71 339 133 347 137 27 15 -39 8 -285 -31z"/>
    <path filter="url(#glow)" d="M7137 690 c-58 -15 -89 -34 -134 -83 -47 -51 -67 -102 -67 -172 0 -27 6 -68 13 -89 18 -51 85 -124 136 -147 93 -41 214 -33 298 21 164 103 150 354 -23 443 -62 31 -159 43 -223 27z m155 -159 c31 -28 33 -33 33 -96 0 -63 -2 -68 -33 -96 -46 -41 -111 -41 -152 -1 -53 53 -49 158 7 201 40 32 104 28 145 -8z"/>
    <path filter="url(#glow)" d="M9489 686 c-115 -31 -168 -127 -123 -222 20 -42 63 -66 169 -93 88 -22 104 -33 85 -56 -17 -21 -102 -19 -170 5 -30 10 -56 18 -57 16 -1 -1 -13 -27 -27 -58 l-24 -55 35 -17 c19 -9 68 -22 109 -28 183 -28 316 51 301 179 -8 77 -55 109 -204 143 -62 14 -82 32 -62 56 17 20 119 16 166 -8 l32 -16 24 62 c29 70 30 68 -59 91 -69 18 -132 18 -195 1z"/>
    <path filter="url(#glow)" d="M10037 690 c-58 -15 -89 -34 -134 -83 -47 -51 -67 -102 -67 -172 0 -27 6 -68 13 -89 18 -51 85 -124 136 -147 93 -41 214 -33 298 21 164 103 150 354 -23 443 -62 31 -159 43 -223 27z m155 -159 c31 -28 33 -33 33 -96 0 -63 -2 -68 -33 -96 -46 -41 -111 -41 -152 -1 -53 53 -49 158 7 201 40 32 104 28 145 -8z"/>
    <path filter="url(#glow)" d="M11748 687 c-101 -29 -165 -97 -188 -201 -24 -110 32 -229 134 -281 105 -53 262 -37 331 35 32 33 30 39 -37 91 l-38 31 -31 -26 c-45 -38 -120 -37 -159 2 -53 53 -49 158 7 201 39 31 112 29 152 -5 l31 -26 38 31 c65 51 68 58 41 88 -54 58 -186 86 -281 60z"/>
    <path filter="url(#glow)" d="M7570 436 l0 -256 85 0 85 0 0 64 0 63 83 5 c68 3 93 9 129 31 126 74 114 260 -21 320 -38 17 -73 21 -203 25 l-158 5 0 -257z m278 108 c25 -17 31 -71 10 -92 -7 -7 -36 -12 -65 -12 l-53 0 0 60 0 60 43 0 c23 0 53 -7 65 -16z"/>
    <path filter="url(#glow)" d="M8090 435 l0 -255 210 0 210 0 0 65 0 65 -125 0 -125 0 0 35 0 35 105 0 105 0 0 60 0 60 -105 0 -105 0 0 30 0 30 120 0 120 0 0 65 0 65 -205 0 -205 0 0 -255z"/>
    <path filter="url(#glow)" d="M8574 677 c-2 -7 -3 -120 -2 -252 l3 -240 80 0 80 0 5 110 5 110 94 -113 95 -113 65 3 66 3 0 250 0 250 -80 0 -80 0 -5 -110 -5 -110 -94 113 -94 112 -64 0 c-42 0 -65 -4 -69 -13z"/>
    <path filter="url(#glow)" d="M10470 528 c0 -90 5 -179 10 -199 16 -58 51 -101 105 -128 41 -22 63 -26 130 -25 91 0 144 21 188 73 44 53 52 93 52 271 l0 165 -82 3 -83 3 0 -161 c0 -195 -8 -220 -76 -220 -16 0 -39 6 -50 14 -17 13 -19 31 -24 188 l-5 173 -82 3 -83 3 0 -163z"/>
    <path filter="url(#glow)" d="M11030 436 l0 -256 85 0 85 0 0 65 c0 62 1 65 24 65 18 0 34 -15 67 -65 l44 -64 89 -1 88 0 -17 28 c-10 15 -33 49 -51 76 l-33 50 39 42 c87 94 58 235 -59 287 -38 17 -73 21 -203 25 l-158 5 0 -257z m278 108 c25 -17 31 -71 10 -92 -7 -7 -36 -12 -65 -12 l-53 0 0 60 0 60 43 0 c23 0 53 -7 65 -16z"/>
    <path filter="url(#glow)" d="M12110 435 l0 -255 210 0 210 0 0 65 0 65 -125 0 -125 0 0 35 0 35 105 0 105 0 0 60 0 60 -105 0 -105 0 0 30 0 30 120 0 120 0 0 65 0 65 -205 0 -205 0 0 -255z"/>
    <path fill="#d71e23" d="M1770 439 l0 -191 378 5 c437 6 547 20 698 87 98 44 121 101 64 159 -89 89 -371 131 -887 131 l-253 0 0 -191z m587 111 c164 -11 286 -42 326 -81 24 -24 26 -32 17 -50 -7 -11 -31 -29 -55 -40 -88 -39 -172 -50 -417 -56 l-238 -5 0 114 c0 63 3 118 7 121 9 10 203 8 360 -3z"/>
    <path fill="#d71e23" d="M3020 440 l0 -190 465 0 465 0 0 35 0 35 -355 0 -355 0 0 40 0 40 355 0 355 0 0 40 0 40 -360 0 -360 0 0 35 0 35 360 0 360 0 0 40 0 40 -465 0 -465 0 0 -190z"/>
    <path fill="#d71e23" d="M4036 611 c5 -6 108 -91 229 -190 l220 -180 76 -1 76 0 253 190 253 190 -132 0 -132 0 -154 -130 c-84 -71 -157 -130 -162 -130 -4 0 -82 58 -173 130 l-165 130 -99 0 c-63 0 -96 -4 -90 -9z"/>
  </g>
</svg>
